HIERARCHY
ROOT Hips
{
  OFFSET 0 0.240689 0
  CHANNELS 6 Xposition Yposition Zposition Zrotation Xrotation Yrotation
  JOINT Bip01_Spine0
  {
    OFFSET 0 -24.7459 49.7988
    CHANNELS 6 Xposition Yposition Zposition Zrotation Xrotation Yrotation
    JOINT Bip01_Pelvis
    {
      OFFSET 0 0 0
      CHANNELS 6 Xposition Yposition Zposition Zrotation Xrotation Yrotation
      JOINT Bip01_Spine0_Tail
      {
        OFFSET -6.47486 -3.86022 0
        CHANNELS 6 Xposition Yposition Zposition Zrotation Xrotation Yrotation
        JOINT Bip01_Spine0_Tail1
        {
          OFFSET 10.3837 -0.00825882 0
          CHANNELS 6 Xposition Yposition Zposition Zrotation Xrotation Yrotation
          JOINT Bip01_Spine0_Tail2
          {
            OFFSET 10.3837 -0.00826263 0
            CHANNELS 6 Xposition Yposition Zposition Zrotation Xrotation Yrotation
            JOINT Bip01_Spine0_Tail3
            {
              OFFSET 10.3837 -0.00825882 0
              CHANNELS 6 Xposition Yposition Zposition Zrotation Xrotation Yrotation
              JOINT Bip01_Spine0_Tail4
              {
                OFFSET 10.3837 -0.00826263 0
                CHANNELS 6 Xposition Yposition Zposition Zrotation Xrotation Yrotation
                End Site
                {
                  OFFSET 0 0 0
                }
              }
            }
          }
        }
      }
      JOINT Bip01_R_Thigh
      {
        OFFSET 0 -1.52588e-005 -8.75617
        CHANNELS 6 Xposition Yposition Zposition Zrotation Xrotation Yrotation
        JOINT Bip01_R_Calf
        {
          OFFSET 19.7638 0 0
          CHANNELS 6 Xposition Yposition Zposition Zrotation Xrotation Yrotation
          JOINT Bip01_R_Foot
          {
            OFFSET 18.6534 0 0
            CHANNELS 6 Xposition Yposition Zposition Zrotation Xrotation Yrotation
            JOINT Bip01_R_Toe0
            {
              OFFSET 5.09145 13.9567 0
              CHANNELS 6 Xposition Yposition Zposition Zrotation Xrotation Yrotation
              JOINT Bip01_R_Toe01
              {
                OFFSET 4.28803 0 0
                CHANNELS 6 Xposition Yposition Zposition Zrotation Xrotation Yrotation
                JOINT Bip01_R_Toe02
                {
                  OFFSET 3.85801 0 0
                  CHANNELS 6 Xposition Yposition Zposition Zrotation Xrotation Yrotation
                  End Site
                  {
                    OFFSET 0 0 0
                  }
                }
              }
            }
          }
        }
      }
      JOINT Bip01_L_Thigh
      {
        OFFSET 0 1.52588e-005 8.75617
        CHANNELS 6 Xposition Yposition Zposition Zrotation Xrotation Yrotation
        JOINT Bip01_L_Calf
        {
          OFFSET 19.7638 0 0
          CHANNELS 6 Xposition Yposition Zposition Zrotation Xrotation Yrotation
          JOINT Bip01_L_Foot
          {
            OFFSET 18.6534 0 0
            CHANNELS 6 Xposition Yposition Zposition Zrotation Xrotation Yrotation
            JOINT Bip01_L_Toe0
            {
              OFFSET 5.09144 13.9567 0
              CHANNELS 6 Xposition Yposition Zposition Zrotation Xrotation Yrotation
              JOINT Bip01_L_Toe01
              {
                OFFSET 4.28802 0 0
                CHANNELS 6 Xposition Yposition Zposition Zrotation Xrotation Yrotation
                JOINT Bip01_L_Toe02
                {
                  OFFSET 3.85801 0 0
                  CHANNELS 6 Xposition Yposition Zposition Zrotation Xrotation Yrotation
                  End Site
                  {
                    OFFSET 0 0 0
                  }
                }
              }
            }
          }
        }
      }
      JOINT Bip01_Spine
      {
        OFFSET 9.14835 -0.00640869 -1.1e-005
        CHANNELS 6 Xposition Yposition Zposition Zrotation Xrotation Yrotation
        JOINT Bip01_Spine1
        {
          OFFSET 8.04366 -0.00638199 0
          CHANNELS 6 Xposition Yposition Zposition Zrotation Xrotation Yrotation
          JOINT Bip01_Spine2
          {
            OFFSET 8.04367 -0.00639343 0
            CHANNELS 6 Xposition Yposition Zposition Zrotation Xrotation Yrotation
            JOINT Bip01_Spine3
            {
              OFFSET 8.04304 -0.00831222 0
              CHANNELS 6 Xposition Yposition Zposition Zrotation Xrotation Yrotation
              JOINT Bip01_Neck
              {
                OFFSET 10.6685 1.06813 0
                CHANNELS 6 Xposition Yposition Zposition Zrotation Xrotation Yrotation
                JOINT Bip01_R_Clavicle
                {
                  OFFSET -3.21661 -4.89635 -9.04802
                  CHANNELS 6 Xposition Yposition Zposition Zrotation Xrotation Yrotation
                  JOINT Bip01_R_UpperArm
                  {
                    OFFSET 19.0492 0 0
                    CHANNELS 6 Xposition Yposition Zposition Zrotation Xrotation Yrotation
                    JOINT Bip01_R_Forearm
                    {
                      OFFSET 10.3706 0 0
                      CHANNELS 6 Xposition Yposition Zposition Zrotation Xrotation Yrotation
                      JOINT Bip01_R_Hand
                      {
                        OFFSET 22.8632 0 0
                        CHANNELS 6 Xposition Yposition Zposition Zrotation Xrotation Yrotation
                        JOINT Bip01_R_Finger0
                        {
                          OFFSET 6.48259 0.103651 0.504496
                          CHANNELS 6 Xposition Yposition Zposition Zrotation Xrotation Yrotation
                          JOINT Bip01_R_Finger01
                          {
                            OFFSET 3.66847 0 0
                            CHANNELS 6 Xposition Yposition Zposition Zrotation Xrotation Yrotation
                            End Site
                            {
                              OFFSET 0 0 0
                            }
                          }
                        }
                      }
                    }
                  }
                }
                JOINT Bip01_L_Clavicle
                {
                  OFFSET -3.21661 -4.89641 9.04797
                  CHANNELS 6 Xposition Yposition Zposition Zrotation Xrotation Yrotation
                  JOINT Bip01_L_UpperArm
                  {
                    OFFSET 19.0492 0 0
                    CHANNELS 6 Xposition Yposition Zposition Zrotation Xrotation Yrotation
                    JOINT Bip01_L_Forearm
                    {
                      OFFSET 10.3706 0 0
                      CHANNELS 6 Xposition Yposition Zposition Zrotation Xrotation Yrotation
                      JOINT Bip01_L_Hand
                      {
                        OFFSET 22.8631 0 0
                        CHANNELS 6 Xposition Yposition Zposition Zrotation Xrotation Yrotation
                        JOINT Bip01_L_Finger0
                        {
                          OFFSET 6.48257 0.103655 -0.504492
                          CHANNELS 6 Xposition Yposition Zposition Zrotation Xrotation Yrotation
                          JOINT Bip01_L_Finger01
                          {
                            OFFSET 3.66844 0 0
                            CHANNELS 6 Xposition Yposition Zposition Zrotation Xrotation Yrotation
                            End Site
                            {
                              OFFSET 0 0 0
                            }
                          }
                        }
                      }
                    }
                  }
                }
                JOINT Bip01_Neck1
                {
                  OFFSET 7.52459 -0.00656509 0
                  CHANNELS 6 Xposition Yposition Zposition Zrotation Xrotation Yrotation
                  JOINT Bip01_Neck2
                  {
                    OFFSET 8.4783 -0.00588226 0
                    CHANNELS 6 Xposition Yposition Zposition Zrotation Xrotation Yrotation
                    JOINT Bip01_Head
                    {
                      OFFSET 8.41606 0 0
                      CHANNELS 6 Xposition Yposition Zposition Zrotation Xrotation Yrotation
                      JOINT EyesBlue
                      {
                        OFFSET 0 0 0
                        CHANNELS 6 Xposition Yposition Zposition Zrotation Xrotation Yrotation
                        JOINT EyesBlue_2
                        {
                          OFFSET 0 -0.500007 0
                          CHANNELS 6 Xposition Yposition Zposition Zrotation Xrotation Yrotation
                          End Site
                          {
                            OFFSET 0 0 0
                          }
                        }
                      }
                      JOINT Bip01_Head2_Eyeleds
                      {
                        OFFSET 6.52751 7.61746 2.2e-005
                        CHANNELS 6 Xposition Yposition Zposition Zrotation Xrotation Yrotation
                        End Site
                        {
                          OFFSET 0 0 0
                        }
                      }
                      JOINT Bip01_Head_Muzzle
                      {
                        OFFSET 2.88628 13.9448 3.88994
                        CHANNELS 6 Xposition Yposition Zposition Zrotation Xrotation Yrotation
                        End Site
                        {
                          OFFSET 0 0 0
                        }
                      }
                      JOINT Bip01_Head1_Jaw
                      {
                        OFFSET 0.271065 1.32405 0
                        CHANNELS 6 Xposition Yposition Zposition Zrotation Xrotation Yrotation
                        JOINT _Bip01_Head11_TungeControler
                        {
                          OFFSET 4.61616 5.82872 0
                          CHANNELS 6 Xposition Yposition Zposition Zrotation Xrotation Yrotation
                          JOINT _Bip01_Ponytail3_tunge
                          {
                            OFFSET 5.17785 2.98805 0
                            CHANNELS 6 Xposition Yposition Zposition Zrotation Xrotation Yrotation
                            JOINT Bip01_Ponytail31
                            {
                              OFFSET 5.57569 0 0
                              CHANNELS 6 Xposition Yposition Zposition Zrotation Xrotation Yrotation
                              JOINT Bip01_Ponytail32
                              {
                                OFFSET 2.93165 0 0
                                CHANNELS 6 Xposition Yposition Zposition Zrotation Xrotation Yrotation
                                JOINT Bip01_Ponytail3Nub
                                {
                                  OFFSET 3.30155 0 0
                                  CHANNELS 6 Xposition Yposition Zposition Zrotation Xrotation Yrotation
                                  End Site
                                  {
                                    OFFSET 0 0 0
                                  }
                                }
                              }
                            }
                          }
                        }
                        JOINT Bip01_Head_JawNub
                        {
                          OFFSET 15.5776 -0.000389099 0
                          CHANNELS 6 Xposition Yposition Zposition Zrotation Xrotation Yrotation
                          End Site
                          {
                            OFFSET 0 0 0
                          }
                        }
                      }
                      JOINT Bip01_Ponytail2
                      {
                        OFFSET 9.40334 1.03973 -6.51764
                        CHANNELS 6 Xposition Yposition Zposition Zrotation Xrotation Yrotation
                        JOINT Bip01_Ponytail21
                        {
                          OFFSET 2.77018 -0.00640106 1.33514e-005
                          CHANNELS 6 Xposition Yposition Zposition Zrotation Xrotation Yrotation
                          End Site
                          {
                            OFFSET 0 0 0
                          }
                        }
                      }
                      JOINT Bip01_Ponytail1
                      {
                        OFFSET 9.40368 1.03969 6.51768
                        CHANNELS 6 Xposition Yposition Zposition Zrotation Xrotation Yrotation
                        JOINT Bip01_Ponytail11
                        {
                          OFFSET 2.77018 -0.00640487 0
                          CHANNELS 6 Xposition Yposition Zposition Zrotation Xrotation Yrotation
                          End Site
                          {
                            OFFSET 0 0 0
                          }
                        }
                      }
                    }
                  }
                }
              }
            }
          }
        }
      }
    }
  }
}
MOTION
Frames:	4
Frame Time:	0.0333333
-2e-006 0.240689 -4e-006 -0 -90 -0 4.21322 -28.7019 47.1509 90.193 1.99028 84.4583 0 0 0 -93.2821 0.667347 -101.481 -6.34427 -3.92958 1.06263 134.119 8.421 -9.81762 10.3787 -0.006763 5.09998e-005 -33.171 -0.147459 -5.04361 10.3832 -0.008106 0.000459 -0.665368 -2.35014 -4.96971 10.3907 -0.003799 0.000488 61.9509 -2.91825 -0.111195 10.3905 -0.004009 0.000433 59.9315 -2.88803 -6.88915 7.40716e-006 -1.18098e-005 -8.75617 -122.726 -9.23223 174.257 19.7638 -7.10543e-015 1.77636e-015 -74.6815 0.000470767 0.00351568 18.6534 0 -3.55271e-015 -11.7834 2.3075 5.28932 5.09143 13.9567 2.38882e-007 100.039 0.911352 -4.91623 4.288 0 -3.55271e-015 51.5 4.39666e-006 2.13215e-005 3.85799 -7.10543e-015 -7.10543e-015 -45 -1.03543e-005 5.33829e-007 -1.74072e-005 1.18098e-005 8.75617 -121.236 -15.1899 171.677 19.7638 -6e-006 -6.75016e-014 -81.164 0.000271331 0.00352667 18.6534 0 3.77476e-015 -19.5291 -3.9296 -10.0267 5.09143 13.9567 1.01851e-006 100.758 1.05947 4.88673 4.288 -3e-006 -1.56319e-013 68.7868 -5.26569e-006 -2.73267e-006 3.85799 -1.2168e-013 1e-006 -44.6162 -1.7808e-005 -7.70939e-006 8.96498 0.100312 -1.82103 2.66904 2.43895 6.66171 8.04389 -0.006278 0.000108001 2.69109 -0.670887 11.8135 8.04371 -0.006282 0.000226 1.13389 -1.22963 8.31825 8.04401 -0.008216 0.00014 2.82327 -0.312995 9.27258 10.669 1.06808 6.59179e-005 -7.43601 -0.609428 -3.67549 -4.27474 -4.44668 -8.84005 171.883 -76.8865 99.8137 19.0492 -3e-006 1e-006 80.0209 -6.33197 -69.2802 10.3706 3e-006 1e-006 -117.785 -7.32666e-005 0.000135328 22.8631 3e-006 1e-006 20.2342 21.2188 13.2834 6.48257 0.103653 0.504494 5.41349 -15.4382 -1.38367 3.66843 -1e-006 -1.74083e-013 25.607 2.1265e-006 4.7763e-006 -3.11441 -4.63928 9.21763 -140.483 83.3112 -161.288 19.0492 1.24345e-014 2.84217e-014 113.565 11.541 102.251 10.3706 -1.10134e-013 9.99999e-007 -51.7377 0.00138129 0.00399501 22.8631 -1.77636e-015 -2.66453e-015 -12.5422 -16.1306 7.88336 6.48257 0.103654 -0.504495 -87.03 -2.10955 15.3608 3.66844 -1e-006 2.38298e-012 40.107 -0.000117608 8.15147e-005 7.52763 -0.006557 -0.000234 12.7814 2.91004 1.85486 8.47716 -0.006332 0.0004 18.342 -2.3322 -12.8649 8.41605 0 -7.10543e-015 -102.668 -27.0093 -4.55527 -3e-006 5e-006 -3e-006 -23.1098 1.37701e-015 90 1.36825e-007 -0.500002 -2.36885e-006 -95.5947 90 -174.405 0 0 0 -113.549 7.01671e-015 -180 2.8863 13.9448 3.88993 -22.989 1.37021e-015 90 0 0 0 -85.3358 -1.52588e-005 -180 0 0 0 -120.289 1.56404e-005 -2.66948e-005 0 0 0 133.74 -9.46251e-006 1.31566e-005 0 0 0 1.83152 -1.00886e-006 6.06072e-008 0 0 0 -17.65 7.61538e-006 -2.68783e-007 0 0 0 -26.1943 3.89617e-006 -3.73444e-006 15.5776 -0.0004 -8.99995e-006 -3.18055e-015 -1.59028e-015 3.18055e-015 9.40381 1.03965 -6.51623 -5.81427 -20.0445 20.1782 2.77014 -0.006065 0.002027 2.27149 -18.498 -0.509905 9.40416 1.03961 6.51625 -5.81599 20.0459 -20.1761 2.77015 -0.006076 -0.002033 2.27178 18.4999 0.512847 
-2e-006 0.240689 -4e-006 -90 -89.6388 -90 4.21322 -28.7019 47.29 90.193 1.99028 84.4583 0 0 0 -92.6168 0.498889 -100.271 -6.36834 -3.91319 0.97441 134.029 7.98809 -8.67673 10.3787 -0.006763 5.09999e-005 -32.6514 -0.189239 -5.10891 10.3832 -0.008106 0.000459 -0.28489 -2.37849 -5.06176 10.3907 -0.003799 0.000488 56.8519 -2.92575 -0.523257 10.3905 -0.004009 0.000433 58.9449 -2.79269 -7.16698 7.36628e-006 -1.19035e-005 -8.75617 -123.357 -8.80344 175.994 19.7638 -1.77636e-015 -1.06581e-014 -74.2074 0.000499948 0.00351155 18.6534 0 3.55271e-015 -12.6634 3.87046 3.28134 5.09143 13.9567 2.28832e-007 100.169 1.81109 -5.26672 4.288 0 5.32907e-015 51.5 4.33826e-006 2.13753e-005 3.85799 3.10863e-015 1.77636e-015 -45 -1.02144e-005 5.44838e-007 -1.73663e-005 1.19035e-005 8.75617 -119.881 -14.8635 173.066 19.7638 -6e-006 -5.10703e-014 -79.7918 0.000314742 0.00352636 18.6534 0 -8.88179e-016 -19.1601 -1.33836 -11.0389 5.09143 13.9567 9.21499e-007 100.795 0.934062 3.88725 4.288 -3e-006 -1.33227e-013 68.7868 -3.86408e-006 -2.45874e-006 3.85799 -8.34888e-014 1e-006 -44.6162 -1.77578e-005 -8.7685e-006 9.00101 0.0738168 -1.63114 2.81238 2.17285 5.49173 8.04389 -0.006278 0.000108001 2.65409 -0.516909 11.8304 8.04371 -0.006282 0.000226 1.10672 -1.07312 8.33436 8.04401 -0.008216 0.00014 2.79449 -0.157444 9.28941 10.669 1.06808 6.59153e-005 -6.88489 -0.634026 -3.93134 -4.35774 -4.40693 -8.81928 170.221 -76.8413 98.6519 19.0492 -3e-006 1e-006 83.2247 -6.29898 -72.0584 10.3706 3e-006 1e-006 -118.648 -6.54882e-005 0.000124701 22.8631 3e-006 1e-006 16.3583 19.371 10.461 6.48257 0.103653 0.504494 -11.4343 -14.4184 -5.73795 3.66843 -1e-006 -1.74083e-013 28.0474 4.64745e-006 4.42585e-006 -3.11665 -4.60741 9.23287 -138.173 83.3375 -161.105 19.0492 -3.55272e-015 0 114.149 9.60395 102.272 10.3706 -9.9476e-014 9.99999e-007 -54.5315 0.00126438 0.00400121 22.8631 0 -1.77636e-015 -10.4496 -18.693 9.60101 6.48257 0.103654 -0.504495 -88.2824 -2.45276 15.3109 3.66844 -1e-006 1.78302e-012 40.107 -9.35526e-005 5.91358e-005 7.52763 -0.006557 -0.000234 12.8277 2.91154 1.85251 8.47716 -0.006332 0.0004 17.181 -2.06656 -12.9089 8.41605 2.13163e-014 3.55271e-015 -102.417 -29.5681 -4.16637 -3e-006 5e-006 -3e-006 -23.1098 1.37701e-015 90 1.51475e-007 -0.500002 -2.36502e-006 -92.3161 90 -177.684 0 0 0 -113.549 -7.01671e-015 -180 2.8863 13.9448 3.88993 -22.989 1.37021e-015 90 0 0 0 -85.3358 -1.52588e-005 -180 0 0 0 -120.289 1.59014e-005 -2.68508e-005 0 0 0 133.74 -9.03955e-006 1.32793e-005 0 0 0 1.83152 -9.67477e-007 7.03714e-008 0 0 0 -17.65 7.47319e-006 -3.73914e-007 0 0 0 -26.1943 4.04654e-006 -3.81753e-006 15.5776 -0.0004 -8.99995e-006 -1.59028e-015 0 -3.18055e-015 9.40381 1.03965 -6.51623 -5.819 -20.0338 20.1257 2.77014 -0.006065 0.002027 2.27154 -18.5005 -0.563971 9.40416 1.03961 6.51625 -5.81976 20.0351 -20.1249 2.77015 -0.006076 -0.002033 2.2708 18.5023 0.566146 
-2e-006 0.240689 -4e-006 -90 -88.5917 -90 4.21322 -28.7019 47.4409 90.193 1.99028 84.4583 0 0 0 -91.8463 0.326881 -98.9895 -6.39171 -3.89619 0.884696 134.02 7.56078 -7.42077 10.3787 -0.006763 5.09999e-005 -32.1428 -0.228991 -5.21533 10.3832 -0.008106 0.000459 0.0884418 -2.4054 -5.22019 10.3907 -0.003799 0.000488 51.597 -2.91018 -1.03185 10.3905 -0.004009 0.000433 57.9773 -2.70788 -7.58032 7.3222e-006 -1.21402e-005 -8.75617 -123.864 -8.26016 177.653 19.7638 3.55271e-015 5.32907e-015 -73.5659 0.00053935 0.00350559 18.6534 0 5.32907e-015 -13.5831 5.37498 1.34063 5.09143 13.9567 2.12133e-007 100.468 3.76941 -6.03709 4.288 1.77636e-015 -1.77636e-015 51.5 4.30124e-006 2.15918e-005 3.85799 -1.28786e-014 0 -45 -9.81841e-006 4.49236e-007 -1.73222e-005 1.21402e-005 8.75617 -118.353 -14.3825 174.366 19.7638 -6e-006 -2.9754e-014 -78.0704 0.00036877 0.00352609 18.6534 0 3.55271e-015 -18.9341 1.17377 -12.0826 5.09143 13.9567 8.28616e-007 100.891 0.270855 1.13513 4.288 -3e-006 -1.10134e-013 68.7868 -3.15281e-007 -1.98255e-006 3.85799 -1.33227e-014 1e-006 -44.6162 -1.7821e-005 -1.13908e-005 9.035 0.0469614 -1.42925 2.98596 1.83395 4.27225 8.04389 -0.006278 0.000108001 2.6111 -0.351359 11.8613 8.04371 -0.006282 0.000226 1.07412 -0.905609 8.36493 8.04401 -0.008216 0.00014 2.75898 0.0096343 9.32018 10.669 1.06808 6.59165e-005 -6.28193 -0.661815 -4.17931 -4.44308 -4.36292 -8.7985 168.582 -76.7647 97.627 19.0492 -3e-006 1e-006 85.7218 -6.00018 -75.0974 10.3706 3e-006 1e-006 -117.158 -4.54725e-005 0.000102946 22.8631 3e-006 1e-006 11.4479 17.3176 8.08074 6.48257 0.103653 0.504494 -28.1737 -12.2163 -9.59969 3.66843 -1e-006 -1.91847e-013 30.4404 7.29616e-006 3.37745e-006 -3.12386 -4.57201 9.24797 -135.05 83.4735 -161.71 19.0492 -2.66454e-015 -1.42109e-014 115.287 6.6766 102.459 10.3706 -6.75016e-014 9.99999e-007 -56.2398 0.00119417 0.00400324 22.8631 5.32907e-015 -1.15463e-014 -8.57664 -21.3633 11.5549 6.48257 0.103654 -0.504495 -90.4034 -3.03085 15.2095 3.66844 -1e-006 1.32427e-012 40.107 -7.81401e-005 4.25723e-005 7.52763 -0.006557 -0.000234 12.9132 2.9143 1.84817 8.47716 -0.006332 0.0004 15.9625 -1.78679 -12.9492 8.41605 -1.42109e-014 7.10543e-015 -102.336 -32.1307 -3.91151 -3e-006 5e-006 -3e-006 -23.1098 1.37701e-015 90 1.64759e-007 -0.500002 -2.35842e-006 -86.6354 90 176.635 0 0 0 -113.549 -7.01671e-015 -180 2.8863 13.9448 3.88993 -22.989 1.37021e-015 90 0 0 0 -85.3358 -1.52588e-005 -180 0 0 0 -120.289 1.53242e-005 -2.66164e-005 0 0 0 133.74 -9.2356e-006 1.29612e-005 0 0 0 1.83152 -8.81949e-007 7.38337e-008 0 0 0 -17.65 6.99567e-006 -4.32675e-007 0 0 0 -26.1943 4.066e-006 -3.68826e-006 15.5776 -0.0004 -8.99995e-006 -1.59028e-015 -4.77083e-015 3.18055e-015 9.40381 1.03965 -6.51623 -5.83128 -20.0029 19.9759 2.77014 -0.006065 0.002027 2.27139 -18.5074 -0.717249 9.40416 1.03961 6.51625 -5.83136 20.0038 -19.9749 2.77015 -0.006076 -0.002033 2.27058 18.5093 0.718895 
-2e-006 0.240689 -4e-006 -90 -86.9136 -90 4.21322 -28.7019 47.5957 90.193 1.99028 84.4583 0 0 0 -91.0383 0.167247 -97.6814 -6.41352 -3.87979 0.793895 133.983 7.14866 -6.1184 10.3787 -0.006763 5.09999e-005 -31.6358 -0.269855 -5.30517 10.3832 -0.008106 0.000459 0.460819 -2.43378 -5.35253 10.3907 -0.003799 0.000488 46.4587 -2.85075 -1.49592 10.3905 -0.004009 0.000433 57.0138 -2.61313 -7.93621 7.27654e-006 -1.26348e-005 -8.75617 -124.248 -7.67438 179.32 19.7638 -5.32907e-015 -1.77636e-015 -72.717 0.000591343 0.00349706 18.6534 0 7.10543e-015 -14.5885 6.87501 -0.59832 5.09143 13.9567 1.92466e-007 100.93 6.48109 -7.1277 4.288 1.77636e-015 -3.55271e-015 51.5 3.64031e-006 2.19161e-005 3.85799 -1.95399e-014 3.55271e-015 -45 -8.8552e-006 7.34223e-007 -1.72765e-005 1.26348e-005 8.75617 -116.932 -13.8126 175.549 19.7638 -6e-006 -1.59872e-014 -76.4169 0.000421224 0.00352569 18.6534 -7.10543e-015 -4.44089e-015 -18.6845 3.54485 -13.0749 5.09143 13.9567 7.32698e-007 100.918 -0.204477 -0.978051 4.288 -3e-006 -8.61533e-014 68.7868 4.58223e-006 -1.49887e-006 3.85799 8.17124e-014 1e-006 -44.6162 -1.80975e-005 -1.49625e-005 9.0653 0.0218611 -1.22255 3.1695 1.46616 3.03794 8.04389 -0.006278 0.000108003 2.5663 -0.182482 11.8963 8.04371 -0.006282 0.000226 1.03969 -0.734247 8.40019 8.04401 -0.008216 0.00014 2.72184 0.180532 9.3556 10.669 1.06808 6.59209e-005 -5.66207 -0.692087 -4.42487 -4.52888 -4.31689 -8.77745 166.915 -76.7055 96.5196 19.0492 -3e-006 1e-006 86.3848 -4.98565 -78.6324 10.3706 3e-006 1e-006 -110.347 -2.04706e-005 8.62022e-005 22.8631 3e-006 1e-006 4.61685 14.3257 6.94542 6.48257 0.103653 0.504494 -43.9459 -9.16726 -12.5407 3.66843 -1e-006 -2.13163e-013 32.857 9.08944e-006 2.39885e-006 -3.13238 -4.53543 9.26307 -132.281 83.54 -162.049 19.0492 8.88179e-015 7.10543e-015 116.364 3.72983 102.657 10.3706 -2.13163e-014 9.99999e-007 -57.6328 0.00113768 0.00400382 22.8631 0 3.55271e-015 -6.44469 -23.8615 13.5775 6.48257 0.103654 -0.504495 -92.1035 -3.49082 15.1128 3.66844 -1e-006 1.17151e-012 40.107 -7.6005e-005 3.67148e-005 7.52763 -0.006557 -0.000234 13.0109 2.91744 1.8432 8.47716 -0.006332 0.0004 14.7244 -1.50174 -12.9845 8.41605 0 -2.66454e-015 -102.339 -34.6881 -3.7099 -3e-006 5e-006 -3e-006 -23.1098 1.37701e-015 90 1.76483e-007 -0.500002 -2.34857e-006 -78.3218 90 168.322 0 0 0 -113.549 -7.01671e-015 -180 2.8863 13.9448 3.88993 -22.989 1.37021e-015 90 0 0 0 -85.3358 -1.52588e-005 -180 0 0 0 -120.289 1.40681e-005 -2.60814e-005 0 0 0 133.74 -9.94858e-006 1.22794e-005 0 0 0 1.83152 -7.7236e-007 7.18992e-008 0 0 0 -17.65 6.27947e-006 -4.47559e-007 0 0 0 -26.1943 3.89333e-006 -3.39277e-006 15.5776 -0.0004 -8.99995e-006 0 1.59028e-015 -0 9.40381 1.03965 -6.51623 -5.83668 -19.9887 19.9075 2.77014 -0.006065 0.002027 2.27143 -18.5107 -0.787546 9.40416 1.03961 6.51625 -5.83673 19.9894 -19.9056 2.77015 -0.006076 -0.002033 2.27082 18.5125 0.788826 
